HIERARCHY
ROOT Hips
{
	OFFSET 0.000000 71.427986 0.000000
	CHANNELS 6 Xposition Yposition Zposition Xrotation Yrotation Zrotation
	JOINT Pelvis
	{
		OFFSET 0.000000 0.000000 0.000000
		CHANNELS 3 Xrotation Yrotation Zrotation
		JOINT LeftUpLeg
		{
			OFFSET 6.797100 -2.508499 -1.318700
			CHANNELS 3 Xrotation Yrotation Zrotation
			JOINT LeftLeg
			{
				OFFSET 0.069008 -29.241863 0.690200
				CHANNELS 3 Xrotation Yrotation Zrotation
				JOINT LeftFoot
				{
					OFFSET -0.069008 -29.568123 -0.266800
					CHANNELS 3 Xrotation Yrotation Zrotation
					JOINT LeftToeBase
					{
						OFFSET 3.145500 -8.631000 16.059900
						CHANNELS 3 Xrotation Yrotation Zrotation
						End Site
						{
							OFFSET 0.000000 18.501587 0.000000
						}
					}
				}
			}
			JOINT Left_ShortSleeve
			{
				OFFSET 0.265923 -10.480953 1.153800
				CHANNELS 3 Xrotation Yrotation Zrotation
				End Site
				{
					OFFSET 1.725763 19.823879 0.000000
				}
			}
		}
		JOINT RightUpLeg
		{
			OFFSET -6.797100 -2.508499 -1.318700
			CHANNELS 3 Xrotation Yrotation Zrotation
			JOINT RightLeg
			{
				OFFSET -0.082453 -29.241932 0.688000
				CHANNELS 3 Xrotation Yrotation Zrotation
				JOINT RightFoot
				{
					OFFSET 0.082453 -29.568058 -0.264600
					CHANNELS 3 Xrotation Yrotation Zrotation
					JOINT RightToeBase
					{
						OFFSET -3.115300 -8.682800 16.113400
						CHANNELS 3 Xrotation Yrotation Zrotation
						End Site
						{
							OFFSET 0.000000 18.567114 0.000000
						}
					}
				}
			}
			JOINT Right_ShortSleeve
			{
				OFFSET -0.265923 -10.480953 1.153800
				CHANNELS 3 Xrotation Yrotation Zrotation
				End Site
				{
					OFFSET -1.725766 19.823910 0.000000
				}
			}
		}
	}
	JOINT Spine
	{
		OFFSET 0.000000 13.368103 0.470500
		CHANNELS 3 Xrotation Yrotation Zrotation
		JOINT Spine1
		{
			OFFSET 0.147000 13.837402 0.538800
			CHANNELS 3 Xrotation Yrotation Zrotation
			JOINT Spine2
			{
				OFFSET 0.168000 16.242897 -1.435500
				CHANNELS 3 Xrotation Yrotation Zrotation
				JOINT Neck
				{
					OFFSET 0.217200 18.631500 -1.679100
					CHANNELS 3 Xrotation Yrotation Zrotation
					JOINT Head
					{
						OFFSET 0.000000 6.599396 1.385900
						CHANNELS 3 Xrotation Yrotation Zrotation
						JOINT Hat
						{
							OFFSET -0.532200 27.220596 -10.096100
							CHANNELS 3 Xrotation Yrotation Zrotation
							End Site
							{
								OFFSET 0.000000 22.029861 0.000000
							}
						}
						JOINT HairD
						{
							OFFSET -10.777400 17.437393 -1.325900
							CHANNELS 3 Xrotation Yrotation Zrotation
							JOINT HairD1
							{
								OFFSET -3.290299 -11.051193 1.062200
								CHANNELS 3 Xrotation Yrotation Zrotation
								End Site
								{
									OFFSET 0.000000 11.579437 0.000000
								}
							}
						}
						JOINT HairB
						{
							OFFSET -10.777400 17.437393 1.467900
							CHANNELS 3 Xrotation Yrotation Zrotation
							JOINT HairB1
							{
								OFFSET -1.561200 -12.956299 3.590200
								CHANNELS 3 Xrotation Yrotation Zrotation
								End Site
								{
									OFFSET 0.000000 13.534866 0.000000
								}
							}
						}
						JOINT HairA
						{
							OFFSET 9.713100 17.437393 1.467900
							CHANNELS 3 Xrotation Yrotation Zrotation
							JOINT HairA1
							{
								OFFSET 1.561200 -12.956299 3.590200
								CHANNELS 3 Xrotation Yrotation Zrotation
								End Site
								{
									OFFSET 0.000000 13.534866 0.000000
								}
							}
						}
						JOINT HairC
						{
							OFFSET 9.713100 17.437393 -1.325900
							CHANNELS 3 Xrotation Yrotation Zrotation
							JOINT HairC1
							{
								OFFSET 3.290300 -11.051193 1.062200
								CHANNELS 3 Xrotation Yrotation Zrotation
								End Site
								{
									OFFSET 0.000000 11.579437 0.000000
								}
							}
						}
					}
				}
				JOINT LeftShoulder
				{
					OFFSET 5.101800 15.108002 -2.763700
					CHANNELS 3 Xrotation Yrotation Zrotation
					JOINT LeftArm
					{
						OFFSET 9.825497 2.506317 -1.597400
						CHANNELS 3 Xrotation Yrotation Zrotation
						JOINT LeftForeArm
						{
							OFFSET 21.966244 0.000000 0.000000
							CHANNELS 3 Xrotation Yrotation Zrotation
							JOINT LeftHand
							{
								OFFSET 33.879036 0.000000 0.000000
								CHANNELS 3 Xrotation Yrotation Zrotation
								JOINT LeftHandThumb1
								{
									OFFSET 6.715286 -2.359680 3.363841
									CHANNELS 3 Xrotation Yrotation Zrotation
									JOINT LeftHandThumb2
									{
										OFFSET 2.507072 -1.447464 1.447461
										CHANNELS 3 Xrotation Yrotation Zrotation
										JOINT LeftHandThumb3
										{
											OFFSET 2.898338 -1.673355 1.673357
											CHANNELS 3 Xrotation Yrotation Zrotation
											End Site
											{
												OFFSET -0.295959 3.727692 -0.131651
											}
										}
									}
								}
								JOINT LeftHandIndex1
								{
									OFFSET 14.190811 -0.254547 3.840278
									CHANNELS 3 Xrotation Yrotation Zrotation
									JOINT LeftHandIndex2
									{
										OFFSET 3.551727 0.000000 -0.000000
										CHANNELS 3 Xrotation Yrotation Zrotation
										JOINT LeftHandIndex3
										{
											OFFSET 2.894196 0.000000 0.000000
											CHANNELS 3 Xrotation Yrotation Zrotation
											End Site
											{
												OFFSET -1.000603 2.690872 0.366626
											}
										}
									}
								}
								JOINT LeftHandMiddle1
								{
									OFFSET 13.776489 0.000000 0.000000
									CHANNELS 3 Xrotation Yrotation Zrotation
									JOINT LeftHandMiddle2
									{
										OFFSET 3.438232 0.000000 0.000000
										CHANNELS 3 Xrotation Yrotation Zrotation
										JOINT LeftHandMiddle3
										{
											OFFSET 3.691551 0.000000 0.000000
											CHANNELS 3 Xrotation Yrotation Zrotation
											End Site
											{
												OFFSET -1.082298 3.499527 0.457670
											}
										}
									}
								}
								JOINT LeftHandRing1
								{
									OFFSET 13.966164 -0.268127 -3.067488
									CHANNELS 3 Xrotation Yrotation Zrotation
									JOINT LeftHandRing2
									{
										OFFSET 3.162567 0.000000 0.000000
										CHANNELS 3 Xrotation Yrotation Zrotation
										JOINT LeftHandRing3
										{
											OFFSET 3.324348 0.000000 0.000000
											CHANNELS 3 Xrotation Yrotation Zrotation
											End Site
											{
												OFFSET -0.861900 3.184998 0.405154
											}
										}
									}
								}
								JOINT LeftHandPinky1
								{
									OFFSET 13.131393 -0.168503 -5.746925
									CHANNELS 3 Xrotation Yrotation Zrotation
									JOINT LeftHandPinky2
									{
										OFFSET 2.849182 0.000000 0.000000
										CHANNELS 3 Xrotation Yrotation Zrotation
										JOINT LeftHandPinky3
										{
											OFFSET 2.805038 0.000000 0.000000
											CHANNELS 3 Xrotation Yrotation Zrotation
											End Site
											{
												OFFSET -0.882500 2.642609 0.325652
											}
										}
									}
								}
							}
							JOINT Left_Sleeve
							{
								OFFSET 6.592125 -0.646545 0.805568
								CHANNELS 3 Xrotation Yrotation Zrotation
								End Site
								{
									OFFSET -0.000179 20.275787 -0.000000
								}
							}
						}
					}
				}
				JOINT RightShoulder
				{
					OFFSET -5.731700 15.108002 -2.763700
					CHANNELS 3 Xrotation Yrotation Zrotation
					JOINT RightArm
					{
						OFFSET -9.825497 2.506317 -1.597400
						CHANNELS 3 Xrotation Yrotation Zrotation
						JOINT RightForeArm
						{
							OFFSET -21.966242 0.000000 0.000000
							CHANNELS 3 Xrotation Yrotation Zrotation
							JOINT RightHand
							{
								OFFSET -33.879032 0.000000 0.000000
								CHANNELS 3 Xrotation Yrotation Zrotation
								JOINT RightHandThumb1
								{
									OFFSET -6.715286 -2.359680 3.363841
									CHANNELS 3 Xrotation Yrotation Zrotation
									JOINT RightHandThumb2
									{
										OFFSET -2.507072 -1.447464 1.447461
										CHANNELS 3 Xrotation Yrotation Zrotation
										JOINT RightHandThumb3
										{
											OFFSET -2.898338 -1.673355 1.673357
											CHANNELS 3 Xrotation Yrotation Zrotation
											End Site
											{
												OFFSET 0.295959 3.727692 -0.131651
											}
										}
									}
								}
								JOINT RightHandIndex1
								{
									OFFSET -14.190811 -0.254547 3.840278
									CHANNELS 3 Xrotation Yrotation Zrotation
									JOINT RightHandIndex2
									{
										OFFSET -3.551727 0.000000 -0.000000
										CHANNELS 3 Xrotation Yrotation Zrotation
										JOINT RightHandIndex3
										{
											OFFSET -2.894196 0.000000 0.000000
											CHANNELS 3 Xrotation Yrotation Zrotation
											End Site
											{
												OFFSET 1.000603 2.690872 0.366626
											}
										}
									}
								}
								JOINT RightHandMiddle1
								{
									OFFSET -13.776489 0.000000 0.000000
									CHANNELS 3 Xrotation Yrotation Zrotation
									JOINT RightHandMiddle2
									{
										OFFSET -3.438232 0.000000 0.000000
										CHANNELS 3 Xrotation Yrotation Zrotation
										JOINT RightHandMiddle3
										{
											OFFSET -3.691551 0.000000 0.000000
											CHANNELS 3 Xrotation Yrotation Zrotation
											End Site
											{
												OFFSET 1.082298 3.499527 0.457670
											}
										}
									}
								}
								JOINT RightHandRing1
								{
									OFFSET -13.966164 -0.268127 -3.067488
									CHANNELS 3 Xrotation Yrotation Zrotation
									JOINT RightHandRing2
									{
										OFFSET -3.162567 0.000000 0.000000
										CHANNELS 3 Xrotation Yrotation Zrotation
										JOINT RightHandRing3
										{
											OFFSET -3.324348 0.000000 0.000000
											CHANNELS 3 Xrotation Yrotation Zrotation
											End Site
											{
												OFFSET 0.861900 3.184998 0.405154
											}
										}
									}
								}
								JOINT RightHandPinky1
								{
									OFFSET -13.131393 -0.168503 -5.746925
									CHANNELS 3 Xrotation Yrotation Zrotation
									JOINT RightHandPinky2
									{
										OFFSET -2.849182 0.000000 0.000000
										CHANNELS 3 Xrotation Yrotation Zrotation
										JOINT RightHandPinky3
										{
											OFFSET -2.805038 0.000000 0.000000
											CHANNELS 3 Xrotation Yrotation Zrotation
											End Site
											{
												OFFSET 0.882500 2.642609 0.325652
											}
										}
									}
								}
							}
							JOINT Right_Sleeve
							{
								OFFSET -6.592125 -0.646545 0.805568
								CHANNELS 3 Xrotation Yrotation Zrotation
								End Site
								{
									OFFSET 0.000179 20.275787 -0.000000
								}
							}
						}
					}
				}
				JOINT Bind_Right_JacketString
				{
					OFFSET -3.534800 11.969597 7.200700
					CHANNELS 3 Xrotation Yrotation Zrotation
					JOINT Bind_Right_JacketString1
					{
						OFFSET -0.319900 -6.102600 2.794100
						CHANNELS 3 Xrotation Yrotation Zrotation
						End Site
						{
							OFFSET 0.000000 6.719452 0.000000
						}
					}
				}
				JOINT Bind_Left_JacketString
				{
					OFFSET 2.904800 11.969597 7.200700
					CHANNELS 3 Xrotation Yrotation Zrotation
					JOINT Bind_Left_JacketString1
					{
						OFFSET 0.364800 -5.904503 3.186800
						CHANNELS 3 Xrotation Yrotation Zrotation
						End Site
						{
							OFFSET 0.000000 6.719513 0.000000
						}
					}
				}
				JOINT HairE
				{
					OFFSET 5.915200 17.612701 -11.592200
					CHANNELS 3 Xrotation Yrotation Zrotation
					JOINT HairE1
					{
						OFFSET 0.289200 -7.171898 -1.284500
						CHANNELS 3 Xrotation Yrotation Zrotation
						End Site
						{
							OFFSET 0.000000 7.291756 0.000000
						}
					}
				}
				JOINT HairF
				{
					OFFSET -0.864800 17.612701 -11.592200
					CHANNELS 3 Xrotation Yrotation Zrotation
					JOINT HairF1
					{
						OFFSET 0.000000 -14.087097 -2.127501
						CHANNELS 3 Xrotation Yrotation Zrotation
						End Site
						{
							OFFSET 0.000000 14.246841 0.000000
						}
					}
				}
				JOINT HairG
				{
					OFFSET -8.087700 17.612701 -11.592200
					CHANNELS 3 Xrotation Yrotation Zrotation
					JOINT HairG1
					{
						OFFSET -0.293600 -6.081398 -0.910100
						CHANNELS 3 Xrotation Yrotation Zrotation
						End Site
						{
							OFFSET 0.000000 6.156120 0.000000
						}
					}
				}
			}
		}
	}
	JOINT Pouch
	{
		OFFSET 0.000000 4.394501 10.847300
		CHANNELS 3 Xrotation Yrotation Zrotation
		End Site
		{
			OFFSET 0.000000 21.880577 0.000000
		}
	}
	JOINT Bag
	{
		OFFSET -13.229000 4.813004 -0.593300
		CHANNELS 3 Xrotation Yrotation Zrotation
		End Site
		{
			OFFSET 0.000000 21.880577 0.000000
		}
	}
	JOINT OccupyGuyFacialAnim_Joint
	{
		OFFSET 1.000000 -70.206398 -1.655000
		CHANNELS 3 Xrotation Yrotation Zrotation
		End Site
		{
			OFFSET 0.000000 21.880577 0.000000
		}
	}
}
MOTION
Frames: 4
Frame Time: 0.033333
0.853878 13.914673 300.384674 -61.210216 -8.304596 -210.924465 0.000001 -0.000001 0.000001 -128.019233 -11.676601 2.133129 58.803694 -7.038431 0.673665 6.447775 -10.335972 -4.464684 0.000000 -0.000000 -0.000000 -0.000000 -0.000001 -0.000002 -122.327418 -4.077921 -18.083769 77.527421 -6.200506 8.738050 -22.186529 -7.904967 -2.208483 0.000001 -0.000000 -0.000000 0.000001 0.000000 -0.000001 34.989850 11.655061 7.539900 6.041241 2.324888 2.081460 6.097087 2.254779 1.966111 6.817931 -1.301452 -2.240603 -11.468360 -19.672791 4.833751 -0.000001 -0.000001 0.000001 -0.000001 -0.000001 0.000001 -0.000001 -0.000001 0.000001 -0.000001 -0.000001 0.000001 -0.000000 -0.000001 0.000001 -0.000001 -0.000001 0.000001 -0.000000 -0.000001 0.000001 -0.000001 -0.000001 0.000001 -0.000001 -0.000001 0.000001 2.805734 9.856170 -18.221183 -27.999770 -14.097094 -41.824025 0.000005 -115.902300 -0.000025 8.264864 -33.081017 25.877348 -6.077996 -6.493036 5.860966 12.255192 44.947822 2.305043 -0.000002 0.000001 0.000000 7.482704 6.875508 -41.945725 1.519873 3.937666 -42.198476 -0.000001 0.000000 -0.000000 4.449283 8.710826 -50.527800 1.512910 3.930007 -42.097205 -0.000001 -0.000003 0.000000 5.405315 8.902841 -58.265386 1.479132 3.892410 -41.602064 0.000003 0.000000 0.000002 4.188038 11.501029 -63.499763 1.865331 4.287030 -47.012841 -0.000005 -0.000000 -0.000001 -0.000000 0.000002 -0.000001 -0.446758 -3.644637 -0.150254 1.249431 -35.938236 70.748609 0.000009 140.797765 -0.000002 38.343507 25.975360 -76.414907 -9.405983 17.042763 -2.781448 11.568150 -60.014004 -6.519031 0.000001 0.000004 0.000002 3.322327 -7.140213 51.065742 1.965149 -3.801692 54.657677 -0.000001 -0.000000 0.000004 3.578786 -6.937344 62.475351 2.503428 -4.130225 62.428250 0.000000 -0.000001 -0.000001 3.922260 -7.036482 65.378441 2.578871 -4.168656 63.470974 -0.000001 -0.000001 -0.000000 2.247942 -9.603418 66.407464 2.803258 -4.273029 66.518864 -0.000001 0.000000 0.000002 0.000004 -0.000001 0.000001 0.000002 -0.000000 -0.000001 0.000002 -0.000001 -0.000003 0.000002 -0.000000 -0.000001 0.000002 -0.000000 -0.000001 0.000002 -0.000000 -0.000001 0.000002 -0.000001 -0.000003 0.000002 -0.000000 -0.000001 0.000002 -0.000000 -0.000001 0.000002 -0.000000 -0.000001 0.000002 -0.000001 -0.000003 0.000001 -0.000001 0.000001 0.000001 -0.000001 0.000001 0.000001 -0.000001 0.000001 
1.686562 18.023834 307.792145 -49.614883 -8.825151 -214.469251 -0.000000 0.000002 -0.000003 -118.596154 -12.873691 3.220779 42.351438 -9.341007 4.978637 12.247381 -13.786207 -6.974716 0.000000 -0.000000 0.000000 -0.000000 0.000000 0.000001 -118.384582 -1.963621 -17.032310 74.618212 -7.263966 8.607300 -23.843612 -7.328375 -2.001146 -0.000000 -0.000000 0.000001 0.000001 -0.000002 -0.000001 33.417336 13.821682 7.353423 6.112890 3.100653 1.979992 6.196671 3.038968 1.798564 7.796501 -1.358577 -2.302188 -2.058041 -20.681647 7.374634 0.000001 0.000000 0.000001 0.000001 0.000000 0.000001 0.000001 0.000000 0.000000 0.000001 0.000000 0.000003 -0.000000 -0.000001 0.000001 0.000001 0.000000 0.000003 -0.000000 -0.000001 0.000001 0.000001 0.000000 0.000001 0.000001 0.000000 0.000001 2.812919 10.859849 -19.790576 -25.909553 -21.295799 -43.787387 0.000016 -114.606312 -0.000012 12.112101 -39.084665 37.245127 -6.085686 -6.521649 5.986169 12.590959 45.740872 2.124711 0.000002 -0.000002 0.000001 7.503837 6.826796 -42.761386 1.602564 4.026776 -43.389412 0.000005 -0.000001 -0.000002 4.491999 8.692587 -51.349823 1.597597 4.021518 -43.318289 0.000000 -0.000000 0.000001 5.446511 8.885076 -58.971259 1.559600 3.980951 -42.773810 -0.000001 -0.000001 -0.000001 4.231636 11.589632 -64.058732 1.942653 4.357578 -48.038469 0.000001 -0.000002 -0.000003 0.000001 0.000001 -0.000001 -0.218233 0.288763 -0.026678 8.033935 -34.870715 73.248205 -0.000022 140.724095 0.000015 56.635645 26.479388 -82.354043 -9.729558 16.974301 -3.481783 11.702447 -59.088718 -6.351237 -0.000003 -0.000000 0.000003 2.851830 -6.794811 50.059846 1.893722 -3.750136 53.573070 -0.000001 -0.000002 0.000003 3.470330 -6.914415 60.942937 2.406420 -4.078218 61.072929 -0.000003 -0.000001 0.000001 3.965940 -7.093539 63.978211 2.481169 -4.118547 62.118726 0.000001 -0.000001 -0.000001 2.336860 -9.587827 64.803312 2.698309 -4.226011 65.102624 0.000001 0.000001 0.000001 0.000001 0.000001 -0.000005 -0.000000 -0.000000 -0.000001 -0.000000 0.000000 -0.000000 -0.000000 -0.000000 -0.000001 -0.000000 -0.000000 -0.000001 -0.000000 -0.000000 -0.000001 -0.000000 0.000000 0.000000 -0.000000 -0.000000 -0.000001 -0.000000 -0.000000 -0.000001 -0.000000 -0.000000 -0.000001 -0.000000 0.000000 0.000000 -0.000000 0.000002 -0.000003 -0.000000 0.000002 -0.000003 -0.000000 0.000002 -0.000003 
2.420639 23.445190 315.608459 -38.156401 -10.220373 -218.006333 0.000001 0.000000 -0.000000 -107.995345 -13.886155 4.799158 30.194337 -9.541925 10.107141 22.937546 -17.944905 -1.965128 -0.000000 0.000001 -0.000000 -0.000001 0.000000 -0.000000 -112.004277 -2.157800 -16.716073 74.074911 -7.557704 8.499035 -24.226469 -7.086409 -4.768646 -0.000001 -0.000001 0.000001 0.000000 -0.000001 0.000000 26.805209 13.270852 7.766591 4.633059 3.041136 1.957105 4.711818 2.984945 1.824353 9.794423 -1.034629 -1.381636 11.269002 -16.495204 4.123916 -0.000000 -0.000001 -0.000000 -0.000000 -0.000001 -0.000000 -0.000000 -0.000001 -0.000001 -0.000000 -0.000001 -0.000002 0.000000 -0.000001 -0.000000 -0.000000 -0.000001 -0.000002 0.000000 -0.000001 -0.000000 -0.000000 -0.000001 -0.000000 -0.000000 -0.000001 -0.000000 6.764298 22.054351 -31.281600 -30.107095 -50.915826 -52.352164 -0.000224 -102.327319 -0.000233 15.121393 -39.519905 52.359230 -5.686750 -6.848186 5.006439 13.497154 48.668270 1.811556 0.000001 0.000001 -0.000004 8.307745 7.356919 -45.295496 1.856288 4.278606 -46.891902 0.000002 0.000002 0.000005 4.973831 8.876819 -54.140256 1.854632 4.277054 -46.869567 0.000000 -0.000003 0.000002 5.806126 8.909417 -61.978714 1.805798 4.230918 -46.211376 0.000001 0.000001 0.000000 4.577448 11.904103 -67.183762 2.202811 4.577499 -51.377550 0.000002 -0.000001 -0.000003 0.000001 0.000002 -0.000000 0.994188 8.379199 0.305382 9.600550 -34.323186 68.064386 -0.000018 137.300558 0.000025 60.937677 18.238043 -80.808549 -10.188492 16.925364 -4.377461 11.782553 -57.305396 -6.114941 -0.000002 -0.000002 0.000005 2.202094 -6.177067 47.949834 1.742251 -3.633686 51.220934 -0.000000 -0.000004 0.000007 3.242481 -6.848164 58.099864 2.220560 -3.970100 58.424878 0.000004 -0.000001 -0.000001 3.929671 -7.157018 61.274945 2.293539 -4.013936 59.473285 0.000008 -0.000001 0.000002 1.984484 -9.295519 61.868591 2.500404 -4.128648 62.386436 0.000002 0.000000 0.000002 0.000002 0.000002 -0.000002 0.000001 0.000000 -0.000000 0.000001 0.000001 -0.000002 0.000001 0.000000 -0.000000 0.000001 0.000000 -0.000000 0.000001 0.000000 -0.000000 0.000001 0.000001 -0.000002 0.000001 0.000000 -0.000000 0.000001 0.000000 -0.000000 0.000001 0.000000 -0.000000 0.000001 0.000001 -0.000002 0.000001 0.000000 -0.000000 0.000001 0.000000 -0.000000 0.000001 0.000000 -0.000000 
3.166809 29.471588 323.797058 -25.576982 -13.035425 -220.581028 0.000001 0.000003 -0.000001 -98.544692 -14.410521 10.051134 27.999806 -9.058551 9.995867 31.544812 -19.398448 5.562363 -0.000001 -0.000000 -0.000000 -0.000000 -0.000001 0.000000 -101.698020 -3.975522 -15.902075 72.321438 -7.317101 8.414028 -24.853317 -7.880339 -7.930432 -0.000001 0.000000 -0.000001 -0.000000 -0.000001 -0.000000 19.248882 9.953081 7.859360 3.169294 2.269360 1.625157 3.215511 2.228813 1.571310 12.816869 -0.430044 0.139020 26.828129 -9.158234 -8.963589 0.000001 0.000001 -0.000002 0.000001 0.000001 -0.000002 0.000001 0.000001 -0.000001 0.000001 0.000001 -0.000001 0.000001 -0.000001 0.000000 0.000001 0.000001 -0.000001 0.000001 -0.000001 0.000000 0.000001 0.000001 -0.000002 0.000001 0.000001 -0.000002 18.954342 32.799921 -47.662126 -99.780547 -77.938817 -121.103311 -0.000288 -86.564308 -0.000272 18.478109 -38.754790 69.640390 -5.289207 -7.194223 4.081800 14.483556 51.190912 1.327176 0.000000 0.000001 0.000000 9.081346 7.802200 -47.463026 2.107297 4.499773 -50.170895 0.000002 -0.000002 -0.000000 5.437818 9.030097 -56.610609 2.110142 4.502132 -50.206849 0.000001 0.000000 -0.000003 6.142277 8.920809 -64.671277 2.048378 4.450140 -49.415811 0.000001 0.000003 -0.000002 4.945455 12.219188 -69.983628 2.454482 4.767062 -54.466797 0.000000 -0.000001 -0.000001 0.000000 0.000000 -0.000000 0.600314 14.663484 9.556403 7.161725 -32.381507 55.281393 0.000014 136.235254 0.000010 54.358023 10.836882 -70.523657 -10.794850 16.881344 -5.531647 11.799863 -54.535956 -5.817648 0.000005 -0.000003 -0.000000 1.458514 -5.170137 44.659219 1.514061 -3.438309 47.522551 -0.000001 0.000002 -0.000003 2.895348 -6.719812 53.807609 1.945775 -3.787911 54.364689 0.000001 0.000003 -0.000002 3.808494 -7.235403 57.141291 2.015584 -3.836892 55.414571 0.000001 0.000000 -0.000001 1.074883 -8.553106 57.461897 2.207725 -3.962211 58.239391 -0.000002 0.000003 0.000001 0.000003 -0.000000 -0.000004 0.000000 0.000000 0.000003 -0.000001 -0.000001 -0.000002 0.000000 0.000000 0.000003 0.000000 0.000000 0.000003 0.000000 0.000000 0.000003 -0.000001 -0.000001 -0.000001 0.000000 0.000000 0.000003 0.000000 0.000000 0.000003 0.000000 0.000000 0.000003 -0.000001 -0.000001 -0.000001 0.000001 0.000003 -0.000001 0.000001 0.000003 -0.000001 0.000001 0.000003 -0.000001 
